<svg width="297" height="317" viewBox="0 0 297 317" fill="none" xmlns="http://www.w3.org/2000/svg">
  <style>
    .icon-fill {
      fill: black;
    }
  </style>
<rect x="277" y="48" width="20" height="60" rx="10" class="icon-fill" />
<rect x="277" y="128" width="20" height="60" rx="10" class="icon-fill" />
<rect x="277" y="208" width="20" height="60" rx="10" class="icon-fill" />
<path d="M218 0C240.091 1.99721e-06 258 17.9086 258 40V277C258 299.091 240.091 317 218 317H40C17.9086 317 0 299.091 0 277V40C1.38534e-06 17.9086 17.9086 0 40 0H218ZM156.908 77.7266L131.769 102.553C130.743 102.519 129.708 102.501 128.662 102.501C126.084 102.501 123.557 102.62 121.08 102.854L91.3105 77.5254L84.7188 71.917V117.613C79.281 122.239 74.6759 127.907 70.9062 134.618C64.9689 145.144 62 158.098 62 173.481C62 188.775 64.9016 201.707 70.7041 212.277C76.5516 222.848 84.4907 230.855 94.5215 236.298C104.597 241.741 115.978 244.462 128.662 244.462C138.783 244.462 147.667 242.909 155.313 239.806C162.96 236.702 169.37 232.609 174.543 227.526C179.761 222.399 183.786 216.82 186.62 210.793C189.454 204.721 191.096 198.761 191.546 192.913L153.492 192.644C153.042 195.612 152.165 198.289 150.86 200.673C149.601 203.012 147.959 205.014 145.935 206.678C143.911 208.342 141.527 209.624 138.783 210.523C136.039 211.378 132.935 211.806 129.472 211.806C123.399 211.806 118.204 210.388 113.886 207.555C109.568 204.676 106.262 200.403 103.968 194.735C101.719 189.023 100.594 181.938 100.594 173.481C100.594 165.475 101.696 158.615 103.9 152.902C106.149 147.19 109.433 142.804 113.751 139.745C118.114 136.686 123.445 135.157 129.742 135.157C133.341 135.157 136.557 135.674 139.391 136.709C142.224 137.699 144.63 139.138 146.609 141.027C148.634 142.872 150.208 145.076 151.333 147.64C152.503 150.204 153.222 153.06 153.492 156.209H191.546C190.826 147.618 188.78 139.993 185.406 133.336C182.033 126.679 177.579 121.078 172.047 116.535C169.467 114.395 166.69 112.495 163.719 110.835V71L156.908 77.7266ZM110.763 104.58C105.197 105.941 99.9183 107.969 94.9268 110.665C94.1791 111.066 93.4436 111.482 92.7188 111.911V89.2275L110.763 104.58ZM155.719 107.122C154.746 106.753 153.757 106.404 152.75 106.077C149.367 104.977 145.835 104.132 142.154 103.539L155.719 90.1436V107.122Z" class="icon-fill" />
</svg>
